# File created by Blade
# Date/Time:  Thu Jan 22 19:49:01 2015
# Frame Rate: 120.000 fps
#------------------------------------------------------
:FULLY-SPECIFIED
:DEGREES
2046
root -2.396292 2.459073 -10.307740 -28.529920 -3.519968 2.169339
RightUpLeg -61.977448 2.869943 1.387855
RightLeg 6.376191 -0.000000 -0.000000
RightFoot 24.110751 0.281204 8.821309
RightToeBase -12.670727 -0.000000 0.000000
LeftUpLeg -94.073279 -9.361636 -4.814117
LeftLeg 47.890414 -0.000000 -0.000000
LeftFoot 5.704317 7.612892 -0.478465
LeftToeBase -19.754086 -0.000000 0.000000
Spine 31.049117 18.878632 0.687491
RightShoulder -15.339760 -13.611934 -11.256620
RightArm 28.677213 8.945061 67.956064
RightForeArm -22.240637 -0.000000 93.553492
RightHand 13.652244 -0.000000 -6.046244
RightHandThumb1 -24.326973 -0.000000 -32.862282
LeftShoulder -21.597908 16.815470 15.053912
LeftArm -10.711107 14.459369 -99.674086
LeftForeArm -20.848632 -0.000000 17.305377
LeftHand -20.087192 0.000000 61.728807
LeftHandThumb1 -26.253704 0.000000 33.147579
Head -8.392624 -14.177968 2.468278
2047
root -2.402082 2.456818 -10.301499 -28.444642 -3.556363 2.111178
RightUpLeg -62.066884 2.849240 1.507184
RightLeg 6.412863 -0.000000 -0.000000
RightFoot 24.107846 0.089774 8.952524
RightToeBase -12.776424 -0.000000 0.000000
LeftUpLeg -93.454545 -8.975296 -4.339851
LeftLeg 47.013647 -0.000000 -0.000000
LeftFoot 5.662361 7.639278 -0.545791
LeftToeBase -19.930906 -0.000000 0.000000
Spine 30.976962 18.734087 0.755292
RightShoulder -15.588429 -14.344908 -10.945762
RightArm 27.962168 8.563007 68.600069
RightForeArm -23.731221 -0.000000 92.904103
RightHand 13.463660 -0.000000 -5.683905
RightHandThumb1 -24.326973 -0.000000 -32.862282
LeftShoulder -21.741044 17.001390 14.827894
LeftArm -10.425230 14.573529 -99.539770
LeftForeArm -20.929935 -0.000000 17.085270
LeftHand -20.092585 -0.000000 61.652711
LeftHandThumb1 -26.253704 0.000000 33.147579
Head -8.371032 -14.057794 2.276701
2048
root -2.405434 2.451257 -10.295257 -28.330843 -3.575196 2.083001
RightUpLeg -62.205729 2.799287 1.617535
RightLeg 6.459526 -0.000000 -0.000000
RightFoot 24.164701 0.033242 9.015614
RightToeBase -12.690444 -0.000000 0.000000
LeftUpLeg -92.863003 -8.606605 -3.866489
LeftLeg 46.162278 -0.000000 -0.000000
LeftFoot 5.626689 7.576941 -0.494926
LeftToeBase -19.884316 -0.000000 0.000000
Spine 30.859980 18.554828 0.746042
RightShoulder -15.769025 -14.981944 -10.593673
RightArm 27.082411 7.976660 68.836516
RightForeArm -24.558872 -0.000000 92.300918
RightHand 13.011570 0.000000 -6.267388
RightHandThumb1 -24.326973 -0.000000 -32.862282
LeftShoulder -21.789600 16.823338 14.777068
LeftArm -10.617508 14.518243 -99.530550
LeftForeArm -21.024752 -0.000000 16.918752
LeftHand -20.045026 -0.000000 61.467562
LeftHandThumb1 -26.253704 0.000000 33.147579
Head -8.370145 -13.919328 2.100363
2049
root -2.402408 2.453127 -10.289777 -28.313322 -3.538195 2.066925
RightUpLeg -62.232667 2.710519 1.669338
RightLeg 6.486184 -0.000000 -0.000000
RightFoot 24.222385 -0.015316 9.104470
RightToeBase -12.715764 -0.000000 0.000000
LeftUpLeg -92.128770 -8.324928 -3.434491
LeftLeg 45.305720 -0.000000 -0.000000
LeftFoot 5.560166 7.649637 -0.544792
LeftToeBase -19.392563 -0.000000 0.000000
Spine 30.891449 18.328157 0.757684
RightShoulder -15.935755 -15.484205 -10.289484
RightArm 26.105899 7.353139 69.071625
RightForeArm -25.029810 -0.000000 91.642752
RightHand 12.684371 -0.000000 -6.878728
RightHandThumb1 -24.326973 -0.000000 -32.862282
LeftShoulder -21.953766 16.786259 14.633949
LeftArm -10.619254 14.877022 -99.510290
LeftForeArm -21.373522 -0.000000 16.806056
LeftHand -19.911375 -0.000000 61.283677
LeftHandThumb1 -26.253704 0.000000 33.147579
Head -8.405740 -13.747570 1.919125
2050
root -2.404658 2.449992 -10.284362 -28.217842 -3.547966 2.041751
RightUpLeg -62.345430 2.696270 1.731151
RightLeg 6.519486 -0.000000 -0.000000
RightFoot 24.284233 -0.094897 9.060250
RightToeBase -12.831709 -0.000000 0.000000
LeftUpLeg -91.506763 -8.009837 -2.991231
LeftLeg 44.508232 -0.000000 -0.000000
LeftFoot 5.529898 7.687734 -0.597130
LeftToeBase -18.658701 -0.000000 0.000000
Spine 30.796640 18.150224 0.764434
RightShoulder -16.139150 -16.106280 -10.071935
RightArm 25.345618 6.784651 69.630617
RightForeArm -25.384449 -0.000000 90.739408
RightHand 12.622039 -0.000000 -7.273484
RightHandThumb1 -24.326973 -0.000000 -32.862282
LeftShoulder -22.055629 16.756933 14.517724
LeftArm -10.609978 14.979209 -99.467646
LeftForeArm -21.509622 -0.000000 16.608618
LeftHand -19.863247 -0.000000 61.134599
LeftHandThumb1 -26.253704 0.000000 33.147579
Head -8.358961 -13.613775 1.766843
2051
root -2.404521 2.449275 -10.273905 -28.156746 -3.590055 2.013930
RightUpLeg -62.417633 2.687171 1.826180
RightLeg 6.567562 -0.000000 -0.000000
RightFoot 24.295447 -0.068509 9.009128
RightToeBase -12.597100 -0.000000 0.000000
LeftUpLeg -90.866452 -7.654163 -2.611890
LeftLeg 43.818440 -0.000000 -0.000000
LeftFoot 5.501683 7.708607 -0.541804
LeftToeBase -18.896901 -0.000000 0.000000
Spine 30.734363 17.998370 0.805846
RightShoulder -16.316761 -16.565579 -9.851894
RightArm 24.372857 6.099275 69.907102
RightForeArm -25.208295 -0.000000 89.847870
RightHand 12.466796 0.000000 -7.938038
RightHandThumb1 -24.326973 -0.000000 -32.862282
LeftShoulder -22.178444 16.790501 14.372032
LeftArm -10.483880 14.863272 -99.381934
LeftForeArm -21.456146 -0.000000 16.311789
LeftHand -19.933381 -0.000000 60.921429
LeftHandThumb1 -26.253704 0.000000 33.147579
Head -8.310517 -13.454765 1.622103
2052
root -2.410078 2.446773 -10.267294 -28.045939 -3.625570 1.977129
RightUpLeg -62.537453 2.700688 1.902868
RightLeg 6.582290 -0.000000 -0.000000
RightFoot 24.457886 -0.175031 9.215184
RightToeBase -12.188041 -0.000000 0.000000
LeftUpLeg -90.279252 -7.346141 -2.154463
LeftLeg 43.112080 -0.000000 -0.000000
LeftFoot 5.485591 7.730340 -0.579435
LeftToeBase -19.068839 -0.000000 0.000000
Spine 30.621301 17.858349 0.822701
RightShoulder -16.538447 -17.077001 -9.609152
RightArm 23.530097 5.427436 70.268220
RightForeArm -24.900033 -0.000000 88.922876
RightHand 12.403222 0.000000 -8.642694
RightHandThumb1 -24.326973 -0.000000 -32.862282
LeftShoulder -22.254419 16.747811 14.265437
LeftArm -10.455796 14.826349 -99.327218
LeftForeArm -21.468782 0.000000 15.999266
LeftHand -19.716901 -0.000000 60.742831
LeftHandThumb1 -26.253704 0.000000 33.147579
Head -8.300061 -13.339505 1.481939
